<svg width="123" height="123" viewBox="0 0 123 123" fill="none" xmlns="http://www.w3.org/2000/svg">
<rect width="123" height="123" fill="#F4E6FF"/>
<path fill-rule="evenodd" clip-rule="evenodd" d="M46.2527 25.1118H76.7497C87.99 25.1118 94.2488 31.5889 94.2488 42.6873V80.2764C94.2488 91.5567 87.99 97.8883 76.7497 97.8883H46.2527C35.1907 97.8883 28.75 91.5567 28.75 80.2764V42.6873C28.75 31.5889 35.1907 25.1118 46.2527 25.1118ZM47.2342 42.0687V42.0323H58.1107C59.679 42.0323 60.9526 43.3059 60.9526 44.867C60.9526 46.4717 59.679 47.7453 58.1107 47.7453H47.2342C45.6659 47.7453 44.3959 46.4717 44.3959 44.907C44.3959 43.3423 45.6659 42.0687 47.2342 42.0687ZM47.2341 64.1929H75.7624C77.3271 64.1929 78.6007 62.9193 78.6007 61.3546C78.6007 59.7899 77.3271 58.5127 75.7624 58.5127H47.2341C45.6657 58.5127 44.3958 59.7899 44.3958 61.3546C44.3958 62.9193 45.6657 64.1929 47.2341 64.1929ZM47.2344 80.822H75.7628C77.2147 80.6764 78.3099 79.4356 78.3099 77.9837C78.3099 76.4918 77.2147 75.2546 75.7628 75.109H47.2344C46.1428 74.9999 45.0875 75.5093 44.5053 76.4554C43.9231 77.3651 43.9231 78.5659 44.5053 79.512C45.0875 80.4217 46.1428 80.9675 47.2344 80.822Z" fill="#B04DFF"/>
</svg>
