<svg width="123" height="123" viewBox="0 0 123 123" fill="none" xmlns="http://www.w3.org/2000/svg">
<rect width="123" height="123" fill="#DEF3FF"/>
<path d="M94.8125 93.0991C94.5013 95.7228 92.3108 97.6753 89.7481 97.6753C87.1183 97.6753 84.9278 95.7228 84.6838 93.0991V73.0858C84.4397 71.1272 85.3488 69.3028 87.0024 68.2655C88.7108 67.2282 90.7854 67.2282 92.4267 68.2655C94.0803 69.3028 94.9894 71.1272 94.8125 73.0858V93.0991Z" fill="#46BCFF"/>
<path d="M66.7403 93.0983C66.4963 95.722 64.3058 97.6745 61.676 97.6745C59.1133 97.6745 56.9228 95.722 56.6117 93.0983V30.9228C56.4347 29.0313 57.3438 27.1337 58.9974 26.1025C60.6387 25.0653 62.7133 25.0653 64.4278 26.1025C66.0753 27.1337 66.9844 29.0313 66.7403 30.9228V93.0983Z" fill="#46BCFF"/>
<path d="M38.3079 93.0987C38.0638 95.7224 35.8734 97.6749 33.2436 97.6749C30.6199 97.6749 28.4233 95.7224 28.1853 93.0987V50.9365C28.0023 49.0389 28.9114 47.1535 30.565 46.1162C32.2063 45.0789 34.2869 45.0789 35.9344 46.1162C37.5757 47.1535 38.4971 49.0389 38.3079 50.9365V93.0987Z" fill="#46BCFF"/>
</svg>
