<svg width="123" height="123" viewBox="0 0 123 123" fill="none" xmlns="http://www.w3.org/2000/svg">
<rect width="123" height="123" fill="#FFF1D7"/>
<path fill-rule="evenodd" clip-rule="evenodd" d="M25.2871 61.5C25.2871 41.5102 41.4746 25.2865 61.5006 25.2865C81.4905 25.2865 97.7141 41.5102 97.7141 61.5C97.7141 81.5261 81.4905 97.7135 61.5006 97.7135C41.4746 97.7135 25.2871 81.5261 25.2871 61.5ZM69.5797 68.1271L75.4463 49.5858C75.8446 48.3183 74.6858 47.1233 73.4183 47.5216L54.877 53.3158C54.1165 53.5693 53.5009 54.1487 53.2836 54.9092L47.4894 73.4867C47.0911 74.718 48.2861 75.9131 49.5174 75.5147L67.9863 69.7205C68.7468 69.5033 69.3624 68.8876 69.5797 68.1271Z" fill="#FFC147"/>
</svg>
