<svg width="123" height="123" viewBox="0 0 123 123" fill="none" xmlns="http://www.w3.org/2000/svg">
<rect width="123" height="123" fill="#FFE5E9"/>
<path d="M99.1595 44.6168H78.8997C75.1686 44.6168 72.1465 47.6389 72.1465 51.3701V91.8896C72.1465 95.6208 75.1686 98.6429 78.8997 98.6429H99.1595C102.891 98.6429 105.913 95.6208 105.913 91.8896V51.3701C105.913 47.6389 102.891 44.6168 99.1595 44.6168ZM89.0296 91.8896C87.1657 91.8896 85.653 90.3769 85.653 88.513C85.653 86.6491 87.1657 85.1364 89.0296 85.1364C90.8935 85.1364 92.4063 86.6491 92.4063 88.513C92.4063 90.3769 90.8935 91.8896 89.0296 91.8896Z" fill="#FF5F85"/>
<path d="M65.3932 51.3702C65.3932 43.9112 71.4408 37.8637 78.8998 37.8637V31.1104C78.8998 27.3793 75.8777 24.3572 72.1465 24.3572H38.3802C34.649 24.3572 31.627 27.3793 31.627 31.1104V85.1365C31.627 88.8677 34.649 91.8898 38.3802 91.8898H65.3932V51.3702ZM55.2634 85.1365C53.3995 85.1365 51.8867 83.6238 51.8867 81.7599C51.8867 79.896 53.3995 78.3832 55.2634 78.3832C57.1273 78.3832 58.64 79.896 58.64 81.7599C58.64 83.6238 57.1273 85.1365 55.2634 85.1365Z" fill="#FF5F85"/>
</svg>
