<svg width="87" height="87" viewBox="0 0 87 87" fill="none" xmlns="http://www.w3.org/2000/svg">
<rect width="86" height="86" fill="#E1E4FF"/>
<circle cx="43.6647" cy="42.9952" r="9.42475" fill="#E1E4FF"/>
<path fill-rule="evenodd" clip-rule="evenodd" d="M62.1738 46.7606C62.967 47.1819 63.5789 47.8472 64.0095 48.5125C64.848 49.8873 64.78 51.5727 63.9641 53.0585L62.3777 55.7195C61.5392 57.1388 59.9755 58.0258 58.3665 58.0258C57.5733 58.0258 56.6894 57.8041 55.9642 57.3605C55.375 56.9836 54.6951 56.8505 53.9699 56.8505C51.7263 56.8505 49.8453 58.6911 49.7773 60.8865C49.7773 63.4367 47.6924 65.4325 45.0862 65.4325H42.0041C39.3752 65.4325 37.2903 63.4367 37.2903 60.8865C37.2449 58.6911 35.3639 56.8505 33.1203 56.8505C32.3725 56.8505 31.6926 56.9836 31.126 57.3605C30.4008 57.8041 29.4943 58.0258 28.7238 58.0258C27.0921 58.0258 25.5284 57.1388 24.6898 55.7195L23.1261 53.0585C22.2876 51.6171 22.2423 49.8873 23.0808 48.5125C23.4434 47.8472 24.1233 47.1819 24.8938 46.7606C25.5284 46.4501 25.9363 45.9401 26.3216 45.3413C27.4547 43.4342 26.7748 40.9284 24.8485 39.7974C22.6049 38.5334 21.8797 35.7171 23.1715 33.5217L24.6898 30.905C26.0043 28.7096 28.8144 27.9334 31.0807 29.2196C33.0523 30.2841 35.6132 29.5744 36.769 27.6895C37.1316 27.0686 37.3356 26.4033 37.2903 25.738C37.2449 24.8732 37.4942 24.0527 37.9248 23.3874C38.7633 22.0125 40.2817 21.1255 41.9361 21.0811H45.1315C46.8085 21.0811 48.3269 22.0125 49.1655 23.3874C49.5734 24.0527 49.8453 24.8732 49.7773 25.738C49.732 26.4033 49.936 27.0686 50.2986 27.6895C51.4544 29.5744 54.0152 30.2841 56.0096 29.2196C58.2532 27.9334 61.086 28.7096 62.3777 30.905L63.8961 33.5217C65.2106 35.7171 64.4854 38.5334 62.2191 39.7974C60.2928 40.9284 59.6129 43.4342 60.7687 45.3413C61.1313 45.9401 61.5392 46.4501 62.1738 46.7606ZM37.1312 43.2786C37.1312 46.7602 40.0093 49.5322 43.5673 49.5322C47.1254 49.5322 49.9355 46.7602 49.9355 43.2786C49.9355 39.797 47.1254 37.0029 43.5673 37.0029C40.0093 37.0029 37.1312 39.797 37.1312 43.2786Z" fill="#596AFF"/>
</svg>
