<svg width="123" height="123" viewBox="0 0 123 123" fill="none" xmlns="http://www.w3.org/2000/svg">
<rect width="123" height="123" fill="#FFE7DA"/>
<path d="M98.3446 33.814C97.7759 32.5723 96.1435 32.2551 95.1803 33.2222L87.0143 41.3881C86.2523 42.1115 85.3045 42.4906 84.3143 42.4906C83.324 42.4906 82.3763 42.1115 81.6142 41.3881C80.1326 39.9066 80.1326 37.4734 81.6142 35.988L89.7802 27.822C90.7472 26.855 90.4339 25.2264 89.1883 24.6578C86.1324 23.2574 82.647 22.6347 78.9528 22.8706C73.2509 23.2497 67.7348 25.6829 63.8201 29.6014C59.7893 33.6322 58.153 38.5372 59.0659 43.7478V43.7478C59.3445 45.4336 58.987 47.2115 57.7788 48.4196L48.4155 57.783C47.2073 58.9912 45.4294 59.3487 43.7436 59.0701V59.0701C38.533 58.1572 33.628 59.7935 29.5973 63.8242C25.6826 67.7428 23.2455 73.2551 22.8665 78.957C22.6266 82.6821 23.2533 86.1713 24.6497 89.2273C25.2184 90.4729 26.8508 90.7862 27.8179 89.8153L35.9838 81.6184C37.4654 80.1368 39.9024 80.1368 41.384 81.6184C42.8655 83.0999 42.8655 85.5369 41.384 87.0185L33.2064 95.1961C32.2316 96.1709 32.5643 97.7994 33.8176 98.3719C36.4364 99.5711 39.3841 100.178 42.4864 100.178C42.9816 100.178 43.5115 100.178 44.0453 100.14C49.7472 99.7607 55.2634 97.3275 59.1781 93.4089C63.2089 89.3781 64.8452 84.4732 63.9322 79.2626V79.2626C63.6537 77.5768 64.0112 75.7989 65.2193 74.5907L74.5827 65.2274C75.7909 64.0192 77.5688 63.6617 79.2545 63.9403V63.9403C80.2061 64.1298 81.1191 64.2072 82.032 64.2072C86.2136 64.2072 90.0935 62.4974 93.4009 59.19C97.3156 55.2714 99.7526 49.7591 100.132 44.0573C100.372 40.3553 99.7449 36.87 98.3446 33.814Z" fill="#FF9054"/>
</svg>
