<svg width="86" height="86" viewBox="0 0 86 86" fill="none" xmlns="http://www.w3.org/2000/svg">
<rect width="86" height="86" fill="#FFE5E9"/>
<path d="M30.7531 30.9149C29.8394 31.4429 29.0856 32.2084 28.5719 33.1302C28.0582 34.052 27.8036 35.0957 27.8352 36.1505L28.1144 46.1384C28.1202 46.3272 28.1716 46.5117 28.2643 46.6763C28.3569 46.8408 28.4881 46.9805 28.6465 47.0833L43.8887 56.9817C44.0471 57.0846 44.228 57.1476 44.416 57.1653C44.604 57.1831 44.7935 57.155 44.9683 57.0835L54.2219 53.2862C55.1976 52.8846 56.0464 52.2262 56.6782 51.3811C57.31 50.536 57.7012 49.5356 57.8103 48.486L60.8185 19.9578C60.8394 19.7566 60.8433 19.5539 60.83 19.352C60.8217 19.2297 60.7751 19.113 60.6969 19.0185C60.6186 18.9241 60.5126 18.8567 60.3939 18.8258C60.2751 18.795 60.1497 18.8023 60.0354 18.8467C59.921 18.8911 59.8235 18.9703 59.7567 19.0732L48.1305 36.976C48.0182 37.1482 47.9532 37.347 47.9423 37.5523C47.9313 37.7576 47.9747 37.9621 48.068 38.1453C48.5353 39.0624 48.6869 40.108 48.4993 41.1201C48.3118 42.1321 47.7955 43.054 47.0306 43.7427C46.2657 44.4314 45.2949 44.8485 44.2688 44.9292C43.2427 45.01 42.2187 44.7499 41.3554 44.1893C40.4922 43.6287 39.8381 42.799 39.4945 41.8288C39.1509 40.8585 39.1371 39.802 39.4552 38.8231C39.7732 37.8442 40.4054 36.9976 41.2537 36.4147C42.1019 35.8317 43.1188 35.5449 44.1467 35.5987C44.352 35.6095 44.5565 35.5659 44.7396 35.4724C44.9227 35.3789 45.0778 35.2388 45.1895 35.0661L56.8157 17.1633C56.8825 17.0604 56.9153 16.9391 56.9093 16.8166C56.9034 16.6941 56.859 16.5765 56.7825 16.4806C56.7061 16.3847 56.6013 16.3153 56.4832 16.2822C56.3651 16.2491 56.2396 16.254 56.1244 16.2962C55.9346 16.3662 55.751 16.4521 55.5757 16.5531L30.7531 30.9149Z" fill="#FF5F85"/>
<path d="M28.1355 49.5398C27.9168 49.3978 27.6569 49.3331 27.3972 49.3558C27.1374 49.3786 26.8927 49.4875 26.702 49.6654L19.6483 56.2347C19.5184 56.3558 19.4178 56.5049 19.3542 56.6707C19.2905 56.8364 19.2655 57.0145 19.2809 57.1914C19.2964 57.3683 19.3519 57.5393 19.4433 57.6915C19.5347 57.8437 19.6596 57.9731 19.8085 58.0699L37.4545 69.5293C37.6034 69.626 37.7724 69.6874 37.9487 69.709C38.1249 69.7306 38.3038 69.7118 38.4716 69.654C38.6395 69.5961 38.792 69.5008 38.9175 69.3752C39.0431 69.2497 39.1383 69.0972 39.1961 68.9293L42.3286 59.8133C42.4134 59.5668 42.4134 59.2989 42.3286 59.0524C42.2437 58.8059 42.0788 58.5948 41.8602 58.4527L28.1355 49.5398Z" fill="#FF5F85"/>
</svg>
